<svg id="Capa_1" enable-background="new 0 0 512 512" height="512" viewBox="0 0 512 512" width="512" xmlns="http://www.w3.org/2000/svg"><path d="m117.723 162.972 122.911 171.458c-3.307 6.439-3.919 7.632-7.226 14.07h-223.408c-3.905-3.905-6.095-6.095-10-10v-219.89c0-9.35 6.35-17.72 15.49-19.67 9.18-1.96 18.23 2.82 21.97 11.01 13.001 28.464 41.121 47.191 72.001 48.486 2.9 1.59 5.362 2.945 8.262 4.536z" fill="#ee3616"/><path d="m240.63 334.43s-5.959 11.609-7.22 14.07h-19.05v-50.72z" fill="#cb0010"/><path d="m512 326.58v11.92l-10 10h-206.934c-9.463-4.859-17.358-8.914-26.82-13.773l-126.976-177.12c.577-1.89.814-2.664 1.391-4.554 20.763-7.926 37.938-24.038 46.918-45.483 2.32-5.52 7.79-9.07 13.78-9.07h22.641c2.97 0 5.86.88 8.33 2.53l244.32 163.18c20.88 13.95 33.35 37.27 33.35 62.37z" fill="#ee3616"/><path d="m512 326.58v11.92l-10 10h-206.93c-11.186-5.747-21.077-10.817-26.82-13.77l-53.89-75.17v-161.06h11.64c2.97 0 5.86.88 8.33 2.53l244.32 163.18c20.88 13.95 33.35 37.27 33.35 62.37z" fill="#cb0010"/><path d="m275.455 338.5h-36.91l-129.084-180.064c11.357.482 22.558-1.347 33.079-5.346z" fill="#fd6328"/><path d="m275.46 338.5h-36.92l-24.18-33.73v-51.5c.112.157 60.99 85.073 61.1 85.23z" fill="#ee3616"/><path d="m134.4 348.5h-124.4c-3.91-3.91-6.09-6.09-10-10v-102.36c37.52-5.67 74.3 4.05 100.69 27.14 24.96 21.84 37.19 52.83 33.71 85.22z" fill="#fd6328"/><path d="m0 338.5v45c0 16.542 13.458 30 30 30h452c16.542 0 30-13.458 30-30v-45z" fill="#d5e8fd"/><g fill="#b6dbfe"><path d="m512 338.5v45c0 16.54-13.46 30-30 30h-267.64v-75z"/><path d="m296.942 125.732c-5.834-5.88-15.332-5.917-21.213-.081l-57.025 56.592c-5.88 5.835-5.917 15.333-.081 21.213 5.833 5.878 15.331 5.919 21.213.081l57.025-56.592c5.881-5.836 5.917-15.333.081-21.213z"/><path d="m348.946 159.735c-5.835-5.882-15.333-5.919-21.213-.084l-58.018 57.56c-5.881 5.834-5.918 15.332-.084 21.213 5.832 5.879 15.33 5.921 21.213.084l58.018-57.56c5.881-5.834 5.918-15.332.084-21.213z"/><path d="m401.441 192.73c-5.895-5.82-15.393-5.76-21.212.136l-59.053 59.816c-5.82 5.895-5.759 15.393.136 21.212 5.886 5.813 15.384 5.767 21.212-.136l59.053-59.816c5.82-5.895 5.759-15.392-.136-21.212z"/></g></svg>